# xmcd
#
# Track frame offsets:
#	150
#	11864
#	29809
#	47736
#	63825
#
# Disc length: 1082 seconds
#
# Revision: 0
# Processed by: cddbd v1.5.2PL0 Copyright (c) Steve Scherf et al.
# Submitted via: EZCDAudioConverter 1.1.0.1
#
DISCID=40043805
DTITLE=Husky Rescue - Deep forest green
DYEAR=2012
DGENRE=
TTITLE0=Min Lilla Eld
TTITLE1=Deep Forest Green
TTITLE2=Wind In The Willows
TTITLE3=Sunrider
TTITLE4=Skin Of Snow
EXTD=
EXTT0=
EXTT1=
EXTT2=
EXTT3=
EXTT4=
PLAYORDER=
